<mxfile host="app.diagrams.net" modified="2023-01-29T12:47:10.722Z" agent="5.0 (Windows NT 10.0; Win64; x64) AppleWebKit/537.36 (KHTML, like Gecko) Chrome/97.0.4692.71 Safari/537.36" etag="CZ0XeZoIq_swysPNn2iL" version="20.8.13" type="github">
  <diagram name="第 1 页" id="l9vA3KBQarGEj7FZ-f7i">
    <mxGraphModel dx="1434" dy="796" grid="1" gridSize="10" guides="1" tooltips="1" connect="1" arrows="1" fold="1" page="1" pageScale="1" pageWidth="827" pageHeight="1169" math="0" shadow="0">
      <root>
        <mxCell id="0" />
        <mxCell id="1" parent="0" />
        <mxCell id="GxoUs-yNHwIrsyV0hJkM-3" style="edgeStyle=orthogonalEdgeStyle;rounded=0;orthogonalLoop=1;jettySize=auto;html=1;fontSize=18;" edge="1" parent="1" source="GxoUs-yNHwIrsyV0hJkM-1" target="GxoUs-yNHwIrsyV0hJkM-2">
          <mxGeometry relative="1" as="geometry" />
        </mxCell>
        <mxCell id="GxoUs-yNHwIrsyV0hJkM-1" value="&lt;font style=&quot;font-size: 18px;&quot;&gt;创建 bean&lt;/font&gt;" style="strokeWidth=2;html=1;shape=mxgraph.flowchart.start_1;whiteSpace=wrap;" vertex="1" parent="1">
          <mxGeometry x="373" y="150" width="100" height="60" as="geometry" />
        </mxCell>
        <mxCell id="GxoUs-yNHwIrsyV0hJkM-5" style="edgeStyle=orthogonalEdgeStyle;rounded=0;orthogonalLoop=1;jettySize=auto;html=1;entryX=0.5;entryY=0;entryDx=0;entryDy=0;entryPerimeter=0;fontSize=18;" edge="1" parent="1" source="GxoUs-yNHwIrsyV0hJkM-2" target="GxoUs-yNHwIrsyV0hJkM-4">
          <mxGeometry relative="1" as="geometry" />
        </mxCell>
        <mxCell id="GxoUs-yNHwIrsyV0hJkM-2" value="解析 bean 中需要注入的依赖项" style="rounded=1;whiteSpace=wrap;html=1;absoluteArcSize=1;arcSize=14;strokeWidth=2;fontSize=18;" vertex="1" parent="1">
          <mxGeometry x="290" y="250" width="266" height="50" as="geometry" />
        </mxCell>
        <mxCell id="GxoUs-yNHwIrsyV0hJkM-8" value="true" style="edgeStyle=orthogonalEdgeStyle;rounded=0;orthogonalLoop=1;jettySize=auto;html=1;entryX=0.5;entryY=0;entryDx=0;entryDy=0;fontSize=18;exitX=0;exitY=0.5;exitDx=0;exitDy=0;exitPerimeter=0;" edge="1" parent="1" source="GxoUs-yNHwIrsyV0hJkM-4" target="GxoUs-yNHwIrsyV0hJkM-7">
          <mxGeometry x="0.3668" relative="1" as="geometry">
            <mxPoint as="offset" />
          </mxGeometry>
        </mxCell>
        <mxCell id="GxoUs-yNHwIrsyV0hJkM-10" value="false" style="edgeStyle=orthogonalEdgeStyle;rounded=0;orthogonalLoop=1;jettySize=auto;html=1;entryX=0.5;entryY=0;entryDx=0;entryDy=0;fontSize=18;exitX=1;exitY=0.5;exitDx=0;exitDy=0;exitPerimeter=0;" edge="1" parent="1" source="GxoUs-yNHwIrsyV0hJkM-4" target="GxoUs-yNHwIrsyV0hJkM-9">
          <mxGeometry x="0.2875" y="2" relative="1" as="geometry">
            <mxPoint y="1" as="offset" />
          </mxGeometry>
        </mxCell>
        <mxCell id="GxoUs-yNHwIrsyV0hJkM-4" value="是否有&lt;br&gt;@Lazy" style="strokeWidth=2;html=1;shape=mxgraph.flowchart.decision;whiteSpace=wrap;fontSize=18;" vertex="1" parent="1">
          <mxGeometry x="364.5" y="330" width="117" height="100" as="geometry" />
        </mxCell>
        <mxCell id="GxoUs-yNHwIrsyV0hJkM-13" style="edgeStyle=orthogonalEdgeStyle;orthogonalLoop=1;jettySize=auto;html=1;entryX=0.5;entryY=0;entryDx=0;entryDy=0;fontSize=18;curved=1;fillColor=#e51400;strokeColor=#B20000;dashed=1;" edge="1" parent="1" source="GxoUs-yNHwIrsyV0hJkM-7" target="GxoUs-yNHwIrsyV0hJkM-12">
          <mxGeometry relative="1" as="geometry" />
        </mxCell>
        <mxCell id="GxoUs-yNHwIrsyV0hJkM-7" value="创建一个代理对象实例" style="rounded=1;whiteSpace=wrap;html=1;absoluteArcSize=1;arcSize=14;strokeWidth=2;fontSize=18;" vertex="1" parent="1">
          <mxGeometry x="170" y="480" width="210" height="35" as="geometry" />
        </mxCell>
        <mxCell id="GxoUs-yNHwIrsyV0hJkM-9" value="创建依赖类型对象实例" style="rounded=1;whiteSpace=wrap;html=1;absoluteArcSize=1;arcSize=14;strokeWidth=2;fontSize=18;" vertex="1" parent="1">
          <mxGeometry x="473" y="480" width="210" height="35" as="geometry" />
        </mxCell>
        <mxCell id="GxoUs-yNHwIrsyV0hJkM-12" value="每次调用都会通过代理去BeanFactory 中寻找实际依赖的类型的对象实例" style="shape=document;whiteSpace=wrap;html=1;boundedLbl=1;fontSize=18;rounded=1;arcSize=14;strokeWidth=2;size=0.2222222222222222;" vertex="1" parent="1">
          <mxGeometry x="54" y="585" width="360" height="95" as="geometry" />
        </mxCell>
      </root>
    </mxGraphModel>
  </diagram>
</mxfile>
